<svg width="150" height="21" viewBox="0 0 150 21" fill="none" xmlns="http://www.w3.org/2000/svg">
<g id="logo">
<g id="Group">
<g id="Group_2">
<g id="Group_3">
<path id="Vector" d="M61.5627 0.325684H66.2423V19.9891H61.5627V0.325684Z" fill="#3D3D3F"/>
</g>
<g id="Group_4">
<path id="Vector_2" d="M70.4185 8.72657H68.1592V5.69768H70.4185C70.4185 1.59219 71.8517 0.325684 75.8476 0.325684C76.5879 0.325684 77.3595 0.380269 78.1032 0.408012V3.71299C77.6647 3.65615 77.2533 3.63033 76.8382 3.63033C75.7648 3.63033 75.1034 3.76781 75.1034 5.06183V5.69768H77.9113V8.72657H75.1034V19.9891H70.4185V8.72657Z" fill="#3D3D3F"/>
</g>
<g id="Group_5">
<path id="Vector_3" d="M91.0245 15.2784C91.0245 15.9949 91.3256 16.5159 91.7956 16.8768C92.2341 17.2087 92.8686 17.3736 93.5302 17.3736C94.4384 17.3736 95.731 16.9861 95.731 15.8579C95.731 14.7582 94.271 14.5346 93.4482 14.3393C90.4996 13.5998 86.8109 13.5173 86.8109 9.66056C86.8109 6.21855 90.5265 5.28271 93.338 5.28271C96.4753 5.28271 99.7525 6.19295 99.9165 9.90755H95.594C95.594 9.30407 95.3748 8.91848 94.9869 8.67003C94.6031 8.42146 94.0787 8.31173 93.499 8.31173C92.7316 8.31173 91.4902 8.39417 91.4902 9.38617C91.4902 10.7337 94.6306 10.9842 96.7801 11.45C99.6703 12.0297 100.414 14.1234 100.414 15.306C100.414 19.1357 96.78 20.4003 93.5574 20.4003C90.1706 20.4003 86.7013 19.2722 86.5604 15.2784H91.0245Z" fill="#3D3D3F"/>
</g>
<g id="Group_6">
<path id="Vector_4" d="M102.099 0.325684H106.782V7.6501H106.837C107.553 6.193 109.48 5.28276 111.187 5.28276C115.953 5.28276 116.337 8.75206 116.337 10.8194V19.9891H111.657V13.0767C111.657 11.1209 111.877 9.13619 109.316 9.13619C107.553 9.13619 106.782 10.6259 106.782 12.1942V19.9891H102.099V0.325684Z" fill="#3D3D3F"/>
</g>
<g id="Group_7">
<path id="Vector_5" d="M122.651 13.9864C122.733 15.9406 123.864 17.2365 125.849 17.2365C126.973 17.2365 128.077 16.7083 128.516 15.6659H132.898C132.044 18.971 128.986 20.4003 125.791 20.4003C121.139 20.4003 117.968 17.5929 117.968 12.8007C117.968 8.42146 121.468 5.28271 125.681 5.28271C130.803 5.28271 133.364 9.13614 133.145 13.9864H122.651ZM128.462 11.368C128.379 9.77041 127.252 8.45022 125.681 8.45022C124.029 8.45022 122.928 9.63474 122.651 11.368H128.462Z" fill="#3D3D3F"/>
</g>
<g id="Group_8">
<path id="Vector_6" d="M135.057 5.69931H139.602V8.20198H139.657C140.346 6.38839 141.944 5.42334 143.953 5.42334C144.313 5.42334 144.696 5.44894 145.057 5.53116V9.80141C144.45 9.63653 143.898 9.5251 143.264 9.5251C140.953 9.5251 139.74 11.1225 139.74 12.913V19.9907H135.057V5.69931Z" fill="#3D3D3F"/>
</g>
<g id="Group_9">
<path id="Vector_7" d="M80.0957 5.69765H84.7787V19.9891H80.0957V5.69765ZM84.762 0.399414H80.0922V3.71297H84.762V0.399414Z" fill="#3D3D3F"/>
</g>
<g id="Group_10">
<path id="Vector_8" d="M149.321 19.9808H144.651V16.6655H149.321V19.9808Z" fill="#3D3D3F"/>
</g>
<g id="Group_11">
<path id="Vector_9" d="M21.7428 13.9864C21.8249 15.9406 22.9563 17.2365 24.9381 17.2365C26.0691 17.2365 27.1696 16.7083 27.6087 15.6659H31.9863C31.1362 18.971 28.0783 20.4003 24.8833 20.4003C20.2308 20.4003 17.0634 17.5929 17.0634 12.8007C17.0634 8.42146 20.5599 5.28271 24.7734 5.28271C29.8954 5.28271 32.4561 9.13614 32.2366 13.9864H21.7428ZM27.5536 11.368C27.4714 9.77041 26.3436 8.45022 24.7734 8.45022C23.1208 8.45022 22.0204 9.63474 21.7428 11.368H27.5536Z" fill="#3D3D3F"/>
</g>
<g id="Group_12">
<path id="Vector_10" d="M43.1762 19.9891C43.0114 19.5469 42.9567 19.1051 42.9019 18.6382C41.6883 19.9067 39.8987 20.4003 38.1949 20.4003C35.4658 20.4003 33.3198 19.0223 33.3198 16.0774C33.3198 11.4227 38.3833 11.7849 41.6367 11.1208C42.4322 10.9566 42.8744 10.6806 42.8744 9.79962C42.8744 8.72653 41.5786 8.31173 40.6152 8.31173C39.3228 8.31173 38.4966 8.88938 38.2735 10.1011H33.8957C33.9778 8.22748 34.8591 7.01567 36.1275 6.27506C37.3959 5.55869 39.045 5.28271 40.6701 5.28271C44.0606 5.28271 47.3344 6.02502 47.3344 10.0738V19.9891H43.1762ZM39.9568 17.5104C42.1853 17.5104 42.9292 16.242 42.8196 13.2964C42.158 13.7093 40.9477 13.7916 39.9293 14.0683C38.8803 14.3153 37.9994 14.7582 37.9994 15.8853C37.9994 17.0407 38.908 17.5104 39.9568 17.5104Z" fill="#3D3D3F"/>
</g>
<g id="Group_13">
<path id="Vector_11" d="M49.8066 5.69931H54.3525V8.20198H54.4038C55.0931 6.38839 56.6907 5.42334 58.6997 5.42334C59.0595 5.42334 59.4436 5.44894 59.8033 5.53116V9.80141C59.1969 9.63653 58.6449 9.5251 58.0139 9.5251C55.6997 9.5251 54.4863 11.1225 54.4863 12.913V19.9907H49.8066V5.69931Z" fill="#3D3D3F"/>
</g>
</g>
<g id="Group_14">
<g id="Group_15">
<path id="Vector_12" d="M0.846802 0.416016H9.99773C13.7085 0.416016 17.1972 2.11864 17.1972 6.83683C17.1972 11.7761 14.3792 13.7026 9.99773 13.7026H6.03792V20.3446H0.846802V0.416016ZM6.03792 9.68063H9.21585C10.8351 9.68063 12.0061 9.01183 12.0061 7.19637C12.0061 5.32696 10.8072 4.57657 9.21585 4.57657H6.03792V9.68063Z" fill="#3D3D3F"/>
</g>
</g>
<g id="Group_16">
<g id="Group_17">
<path id="Vector_13" d="M149.254 20.0431H144.557V16.7085H149.254V20.0431Z" fill="#3D3D3F"/>
</g>
</g>
</g>
</g>
</svg>
