<svg width="156" height="33" viewBox="0 0 156 33" fill="none" xmlns="http://www.w3.org/2000/svg">
<g id="logo">
<g id="Group">
<g id="Group_2">
<path id="Vector" fill-rule="evenodd" clip-rule="evenodd" d="M124.794 22.209C125.023 21.5407 125.109 20.698 125.109 19.3031C125.109 17.908 125.023 17.0943 124.794 16.3969C124.336 15.002 123.277 14.3043 121.76 14.3043C120.242 14.3043 119.211 15.0309 118.753 16.3969C118.524 17.1526 118.438 18.0535 118.438 19.3031C118.438 20.5818 118.524 21.4825 118.753 22.209C119.211 23.5751 120.242 24.3305 121.76 24.3305C123.277 24.3305 124.336 23.6039 124.794 22.209ZM125.396 26.2778C125.224 26.2778 125.109 26.1616 125.109 25.9871V24.6505H125.081C124.422 25.7545 123.248 26.5972 121.187 26.5972C118.811 26.5972 117.15 25.4638 116.463 23.2551C116.091 22.1511 115.976 21.0468 115.976 19.3031C115.976 17.5885 116.091 16.484 116.463 15.3797C117.15 13.1709 118.811 12.0376 121.187 12.0376C123.248 12.0376 124.422 12.8515 125.081 13.9554H125.109V6.80665C125.109 6.63222 125.224 6.51575 125.396 6.51575H127.228C127.4 6.51575 127.514 6.63222 127.514 6.80665V25.9871C127.514 26.1616 127.4 26.2778 127.228 26.2778H125.396ZM139.311 21.7733V20.2328C139.311 20.1167 139.254 20.0584 139.139 20.0584H136.391C134.014 20.0584 132.983 20.7561 132.983 22.3252C132.983 23.7494 134.014 24.5051 135.847 24.5051C137.994 24.5051 139.311 23.4879 139.311 21.7733ZM139.655 26.2777C139.483 26.2777 139.368 26.1615 139.368 25.9871V24.7666H139.34C138.71 25.8126 137.364 26.5974 135.274 26.5974C132.669 26.5974 130.665 25.2317 130.665 22.4125C130.665 19.4775 132.669 18.1114 136.019 18.1114H139.139C139.254 18.1114 139.311 18.0535 139.311 17.937V16.9198C139.311 15.0019 138.566 14.188 136.019 14.188C134.472 14.188 133.499 14.5948 132.697 15.1764C132.554 15.2926 132.382 15.2926 132.296 15.147L131.523 13.8103C131.438 13.6359 131.466 13.5197 131.581 13.4035C132.611 12.5899 134.215 12.0378 136.247 12.0378C140.141 12.0378 141.63 13.3453 141.63 16.7748V25.9871C141.63 26.1615 141.516 26.2777 141.344 26.2777H139.655ZM145.353 31.5087C145.181 31.5087 145.067 31.3925 145.067 31.2181V29.5326C145.067 29.3582 145.181 29.242 145.353 29.242H145.869C146.985 29.242 147.586 28.7481 148.188 27.1494L148.646 25.871L143.607 12.6477C143.549 12.4736 143.635 12.3571 143.836 12.3571H145.84C146.012 12.3571 146.126 12.4444 146.183 12.6477L149.791 22.7033H149.848L153.313 12.6477C153.37 12.4444 153.485 12.3571 153.656 12.3571H155.603C155.775 12.3571 155.889 12.4736 155.832 12.6477L150.421 27.3532C149.218 30.6369 148.159 31.5087 146.098 31.5087H145.353Z" fill="#3D3D3F"/>
</g>
<path id="Vector_2" fill-rule="evenodd" clip-rule="evenodd" d="M75.8339 12.4152C75.8339 10.2647 74.431 8.92776 72.026 8.92776H67.6741C67.5597 8.92776 67.5023 8.98599 67.5023 9.10219V15.7283C67.5023 15.8444 67.5597 15.9024 67.6741 15.9024H72.026C74.431 15.9024 75.8339 14.5658 75.8339 12.4152ZM65.2404 26.2774C65.0689 26.2774 64.9541 26.1612 64.9541 25.9868V6.80633C64.9541 6.63218 65.0689 6.51571 65.2404 6.51571H72.1692C75.9197 6.51571 78.3534 8.84068 78.3534 12.4152C78.3534 15.9898 75.9197 18.3145 72.1692 18.3145H67.6741C67.5597 18.3145 67.5023 18.3727 67.5023 18.4889V25.9868C67.5023 26.1612 67.3878 26.2774 67.216 26.2774H65.2404ZM84.2812 26.4229C81.8759 26.4229 80.9311 25.2605 80.9311 22.7611V6.80652C80.9311 6.6321 81.0456 6.51562 81.2174 6.51562H83.0498C83.2217 6.51562 83.3362 6.6321 83.3362 6.80652V22.6157C83.3362 23.7782 83.7656 24.1559 84.7104 24.1559H85.2546C85.4262 24.1559 85.5406 24.2721 85.5406 24.4465V26.132C85.5406 26.3065 85.4262 26.4229 85.2546 26.4229H84.2812ZM96.0204 21.7731V20.2326C96.0204 20.1165 95.9631 20.0582 95.8486 20.0582H93.1001C90.7235 20.0582 89.6927 20.7559 89.6927 22.325C89.6927 23.7492 90.7235 24.5049 92.5559 24.5049C94.7033 24.5049 96.0204 23.4877 96.0204 21.7731ZM96.3638 26.2775C96.192 26.2775 96.0775 26.1613 96.0775 25.9868V24.7664H96.0488C95.4191 25.8124 94.0733 26.5972 91.9833 26.5972C89.378 26.5972 87.3738 25.2314 87.3738 22.4123C87.3738 19.4772 89.378 18.1112 92.7278 18.1112H95.8486C95.9631 18.1112 96.0204 18.0533 96.0204 17.9368V16.9196C96.0204 15.0017 95.2757 14.1878 92.7278 14.1878C91.1817 14.1878 90.2083 14.5946 89.4064 15.1762C89.2635 15.2923 89.0917 15.2923 89.0056 15.1468L88.2324 13.8101C88.1469 13.6357 88.1753 13.5195 88.2898 13.4033C89.3206 12.5897 90.9241 12.0376 92.9567 12.0376C96.8507 12.0376 98.3394 13.3451 98.3394 16.7746V25.9868C98.3394 26.1613 98.2249 26.2775 98.0531 26.2775H96.3638ZM110.966 26.2775C110.795 26.2775 110.68 26.1613 110.68 25.9869V17.8495C110.68 15.6119 109.678 14.3041 107.616 14.3041C105.756 14.3041 104.467 15.6413 104.467 17.7045V25.9869C104.467 26.1613 104.353 26.2775 104.181 26.2775H102.348C102.177 26.2775 102.062 26.1613 102.062 25.9869V12.6477C102.062 12.4735 102.177 12.3571 102.348 12.3571H104.181C104.353 12.3571 104.467 12.4735 104.467 12.6477V13.9264H104.496C105.154 12.8512 106.471 12.0373 108.332 12.0373C111.31 12.0373 113.085 14.1008 113.085 17.2685V25.9869C113.085 26.1613 112.971 26.2775 112.799 26.2775H110.966Z" fill="#3D3D3F"/>
<path id="Vector_3" fill-rule="evenodd" clip-rule="evenodd" d="M41.0611 13.4402C40.4568 10.6543 38.9689 8.01988 36.5759 5.98192C30.7287 1.00169 22.4362 1.9867 17.7594 7.64412L17.7592 7.6444L17.7589 7.64468L0.772099 28.1931C-0.33001 29.5264 -0.244223 31.0095 0.978642 32.0511C2.20151 33.0927 3.6555 32.9207 4.75761 31.5877L14.9288 19.2837L21.698 11.0955L21.6993 11.0966C21.7146 11.0775 21.7291 11.0578 21.7447 11.039C21.8373 10.9269 21.9318 10.8188 22.0277 10.7131C22.0433 10.6962 22.0597 10.6798 22.0753 10.6627C25.1794 7.3083 30.0627 7.24757 33.2709 9.97991C33.2709 9.97991 33.29 9.99211 33.3261 10.0124C37.0944 13.2677 36.8942 18.4809 34.2452 21.6852C34.1528 21.797 33.9304 22.0443 33.9146 22.0612C30.8107 25.4156 26.0012 25.4877 22.664 22.7115C21.9673 22.1098 21.4064 21.4412 20.9718 20.7304C20.4505 19.8782 19.2621 19.7923 18.628 20.5615L16.4494 23.2035C17.2024 24.4996 18.1892 25.699 19.414 26.7422C25.2611 31.7222 33.5537 30.7372 38.2304 25.08C38.2304 25.08 41.9684 20.6802 41.0611 13.4402Z" fill="#3D3D3F"/>
<path id="Vector_4" fill-rule="evenodd" clip-rule="evenodd" d="M41.0697 13.442L51.2411 1.13823C52.3432 -0.195079 53.7969 -0.366734 55.0198 0.674568C56.2427 1.71615 56.3287 3.19948 55.2266 4.53252L38.2305 25.0796C33.5538 30.737 25.261 31.7217 19.4138 26.7418C18.1893 25.6988 17.2025 24.4992 16.4493 23.2033L18.6278 20.5611C19.2622 19.7921 20.4506 19.8781 20.9719 20.7302C21.4066 21.4407 21.9759 22.1115 22.6726 22.7133C25.9841 25.4786 30.8054 25.4179 33.9095 22.0636C33.9136 22.0591 34.1721 21.7693 34.2401 21.6873L41.0697 13.442Z" fill="#3D3D3F"/>
</g>
</g>
</svg>
