<svg width="136" height="24" viewBox="0 0 136 24" fill="none" xmlns="http://www.w3.org/2000/svg">
<g id="logo">
<path id="Vector" d="M120.342 14.6423C120.342 9.23859 121.812 5.45603 128.094 5.45603C134.376 5.45603 135.847 9.23859 135.847 14.6423C135.847 20.0459 134.376 23.8285 128.094 23.8285C121.946 23.8285 120.342 20.0459 120.342 14.6423ZM131.971 14.6423C131.971 10.8597 131.436 8.69823 128.228 8.69823C125.02 8.69823 124.485 10.8597 124.485 14.6423C124.485 18.4248 125.02 20.5863 128.228 20.5863C131.436 20.5863 131.971 18.2897 131.971 14.6423ZM13.0102 23.153C13.1438 23.2881 13.2775 23.4232 13.4112 23.4232H14.8815C15.1488 23.4232 15.4161 23.153 15.4161 22.8828V6.26658C15.4161 5.9964 15.1488 5.72621 14.8815 5.72621H12.0745C11.8072 5.72621 11.5399 5.9964 11.5399 6.26658V19.3705C10.3369 20.0459 8.8666 20.4512 7.52997 20.4512C5.65868 20.4512 4.72304 19.6406 4.72304 17.8845V6.26658C4.72304 5.9964 4.45571 5.72621 4.18839 5.72621H1.38146C1.11413 5.72621 0.846802 5.9964 0.846802 6.26658V18.1546C0.846802 21.5319 2.45076 23.8285 6.86165 23.8285C8.8666 23.8285 10.8716 23.153 12.4755 21.9372L13.0102 23.153ZM45.624 10.9948C45.624 7.6175 44.0201 5.32094 39.8765 5.32094C37.8716 5.32094 36.0003 5.9964 34.2626 7.07713C33.5943 5.9964 32.124 5.32094 29.8518 5.32094C27.9805 5.32094 26.1092 5.9964 24.6389 7.21222L24.1042 5.9964C23.9706 5.8613 23.8369 5.72621 23.7032 5.72621H22.2329C21.9656 5.72621 21.6983 5.9964 21.6983 6.26658V22.8828C21.6983 23.153 21.9656 23.4232 22.2329 23.4232H25.1735C25.4409 23.4232 25.7082 23.153 25.7082 22.8828V9.77896C26.7775 9.1035 28.1141 8.69823 29.3171 8.69823C30.9211 8.69823 31.8567 9.23859 31.8567 10.9948V22.8828C31.8567 23.153 32.124 23.4232 32.3914 23.4232H35.332C35.5993 23.4232 35.8666 23.153 35.8666 22.8828V9.77896C36.9359 9.1035 38.2725 8.69823 39.4755 8.69823C40.9458 8.69823 42.0151 9.23859 42.0151 10.9948V22.8828C42.0151 23.153 42.2824 23.4232 42.5498 23.4232H45.4904C45.7577 23.4232 46.025 23.153 46.025 22.8828L45.624 10.9948ZM54.5795 21.9372C56.1834 23.153 58.1884 23.8285 60.1933 23.8285C65.2725 23.8285 67.1438 20.3161 67.1438 14.6423C67.1438 8.96841 65.2725 5.45603 60.1933 5.45603C58.5894 5.45603 56.8518 5.9964 55.5151 6.80695V1.40328C55.5151 1.1331 55.2478 0.862915 54.9805 0.862915H52.0399C51.7725 0.862915 51.6389 1.1331 51.6389 1.40328V22.8828C51.6389 23.153 51.9062 23.4232 52.1735 23.4232H53.6438C53.7775 23.4232 54.0448 23.2881 54.0448 23.153L54.5795 21.9372ZM59.2577 20.4512C57.9211 20.4512 56.5844 20.0459 55.5151 19.3705V9.77896C56.7181 9.1035 57.9211 8.69823 59.2577 8.69823C62.7329 8.69823 63.1339 11.4001 63.1339 14.6423C63.1339 17.8845 62.7329 20.4512 59.2577 20.4512ZM81.5795 8.83332C81.1785 8.83332 80.6438 8.69823 80.2428 8.69823C78.6389 8.69823 77.1686 8.96841 75.8319 9.77896V22.8828C75.8319 23.153 75.5646 23.4232 75.2973 23.4232H72.3567C72.0894 23.4232 71.8221 23.153 71.8221 22.8828V6.26658C71.8221 5.9964 72.0894 5.72621 72.3567 5.72621H73.827C73.9607 5.72621 74.228 5.8613 74.228 5.9964L74.7626 7.21222C76.3666 5.9964 78.2379 5.32094 80.2428 5.32094C80.6438 5.32094 81.1785 5.32094 81.5795 5.45603C81.8468 5.45603 82.1141 5.8613 82.1141 6.13149V8.29295C82.1141 8.56314 81.8468 8.83332 81.5795 8.83332ZM91.6042 15.3177C89.8666 15.5879 88.7973 16.1283 88.7973 18.0195C88.7973 19.3705 89.332 20.5863 91.4706 20.5863C92.8072 20.5863 94.1438 20.181 95.2131 19.3705V14.7774L91.6042 15.3177ZM96.2824 21.9372C94.8121 23.153 92.9409 23.8285 91.0696 23.8285C86.525 23.8285 85.0547 20.9916 85.0547 18.1546C85.0547 14.3721 87.4607 12.751 91.4706 12.3457L95.3468 12.0755V11.265C95.3468 9.50878 94.5448 8.69823 91.8716 8.69823C90.2676 8.69823 88.6636 8.96841 87.0597 9.50878H86.926C86.6587 9.50878 86.3914 9.23859 86.3914 8.96841V6.67185C86.3914 6.40167 86.525 6.26658 86.7924 6.13149C88.53 5.59112 90.4013 5.18585 92.1389 5.18585C97.8864 5.18585 99.223 7.75259 99.223 11.4001V22.6127C99.223 22.8828 98.9557 23.153 98.6884 23.153H97.2181C97.0844 23.153 96.8171 23.0179 96.8171 22.8828L96.2824 21.9372ZM116.065 19.7757H116.198C116.466 19.7757 116.733 20.0459 116.733 20.3161V22.6127C116.733 22.8828 116.599 23.0179 116.466 23.153C114.995 23.6934 113.525 23.9636 111.921 23.8285C105.773 23.8285 103.901 20.0459 103.901 14.6423C103.901 9.23859 105.773 5.45603 111.921 5.45603C113.391 5.45603 114.995 5.59112 116.332 6.13149C116.466 6.26658 116.599 6.40167 116.599 6.67185V8.96841C116.599 9.23859 116.332 9.50878 116.065 9.50878H115.931C114.728 9.1035 113.391 8.96841 112.055 8.96841C108.713 8.96841 107.644 11.265 107.644 14.7774C107.644 18.2897 108.579 20.5863 112.055 20.5863C113.525 20.3161 114.862 20.181 116.065 19.7757Z" fill="#3D3D3F"/>
</g>
</svg>
