<svg width="120" height="26" viewBox="0 0 120 26" fill="none" xmlns="http://www.w3.org/2000/svg">
<g id="logo">
<g id="Group">
<path id="Vector" d="M11.668 9.49184C11.5138 9.33766 11.3288 9.21432 11.1438 9.12182C11.853 8.25845 12.223 7.1484 12.223 6.00751C12.223 4.49661 11.5447 3.07821 10.3729 2.12233C9.44789 1.35146 8.27617 0.981445 6.73443 0.981445H0.320801V6.00751V8.22761V11.0027V13.8704V19.544H7.53613C9.29371 19.544 10.6196 19.1431 11.6372 18.2797C12.963 17.2005 13.7339 15.5971 13.7339 13.9012C13.7648 12.1745 12.9939 10.5711 11.668 9.49184ZM3.52761 3.97242H6.14857C7.62864 3.97242 8.12199 4.28076 8.39951 4.61995C8.73869 4.98996 8.95453 5.48332 8.95453 6.00751C8.95453 6.5317 8.76952 6.99422 8.39951 7.39507C8.09116 7.73426 7.62864 8.0426 6.14857 8.0426H3.52761V3.97242ZM9.7254 15.6896C9.29371 16.1213 8.64618 16.5222 6.95027 16.5222H3.52761V11.0644H6.98111C8.67702 11.0644 9.29371 11.4653 9.7254 11.8969C10.2188 12.4211 10.4963 13.0995 10.4963 13.7779C10.4963 14.4871 10.2188 15.1654 9.7254 15.6896Z" fill="#3D3D3F"/>
<path id="Vector_2" d="M27.2087 6.87231H24.1869V19.5454H27.2087V6.87231Z" fill="#3D3D3F"/>
<path id="Vector_3" d="M25.6666 0.950195C24.6182 0.950195 23.7856 1.78273 23.7856 2.86195C23.7856 3.91033 24.6182 4.74287 25.6666 4.74287C26.7458 4.74287 27.5783 3.91033 27.5783 2.86195C27.5783 1.81357 26.7149 0.950195 25.6666 0.950195Z" fill="#3D3D3F"/>
<path id="Vector_4" d="M38.5868 7.70483C37.5692 6.99563 36.3975 6.62561 35.0716 6.62561C33.9307 6.62561 32.8515 6.90312 31.9573 7.42731C29.9531 8.59903 28.7197 10.8191 28.7197 13.1934C28.7197 15.5985 29.9222 17.757 31.9573 18.9287C32.8515 19.4529 34.0232 19.7612 35.1333 19.7612C36.3975 19.7612 37.5384 19.422 38.4943 18.7437V18.8362C38.4943 20.2237 38.3093 21.1488 37.8776 21.7963C37.3226 22.6288 36.3975 23.0605 35.1641 23.0605C33.2215 23.0605 32.1732 22.0122 31.4023 21.0254L31.2173 20.7788L29.028 22.8139L29.1514 22.9989C30.0147 24.3556 32.1423 25.9282 35.2875 25.9282C37.7234 25.9282 39.7277 24.7873 40.7761 22.783C41.3002 21.7655 41.5161 20.5012 41.5161 18.682V6.87229H38.5868V7.70483ZM38.4943 15.3827C37.7542 16.3386 36.6134 16.9244 35.4416 16.9244C33.3449 16.9244 31.7106 15.2902 31.7106 13.2242C31.7106 11.0966 33.2524 9.52408 35.3183 9.52408C36.5209 9.52408 37.7234 10.1099 38.4943 11.0658V15.3827Z" fill="#3D3D3F"/>
<path id="Vector_5" d="M49.5027 6.62379C48.0535 6.62379 46.9434 7.14798 46.2342 7.64134V0.950195H43.2124V19.5435H46.2342V11.064C46.8509 10.3548 47.8993 9.52226 49.441 9.52226C50.3352 9.52226 51.1986 9.92311 51.7228 10.6015C52.062 11.0332 52.3703 11.619 52.3703 13.2224V19.5435H55.3921V13.3458C55.3921 11.3107 55.0221 9.98478 54.1587 8.87473C53.0179 7.45633 51.3528 6.62379 49.5027 6.62379Z" fill="#3D3D3F"/>
<path id="Vector_6" d="M75.0951 7.42731C74.2009 6.90312 73.1217 6.62561 71.9808 6.62561C70.6549 6.62561 69.4832 6.99563 68.4656 7.70483V6.90312H65.5363V25.7432H68.5581V18.7745C69.514 19.4529 70.6549 19.792 71.9191 19.792C73.0292 19.792 74.2317 19.4837 75.0951 18.9595C77.1302 17.757 78.3327 15.6294 78.3327 13.2242C78.3636 10.85 77.0993 8.62987 75.0951 7.42731ZM71.6108 16.9244C70.4699 16.9244 69.329 16.3386 68.5581 15.3827V11.035C69.329 10.0791 70.5007 9.49324 71.7341 9.49324C73.8 9.49324 75.3418 11.0966 75.3418 13.1934C75.3418 15.2902 73.7075 16.9244 71.6108 16.9244Z" fill="#3D3D3F"/>
<path id="Vector_7" d="M85.8257 6.62561C82.2489 6.62561 79.6588 9.40074 79.6588 13.2242C79.6588 16.9861 82.4647 19.8229 86.1957 19.8229C89.3409 19.8229 90.9443 18.1578 91.4993 17.4486L91.6535 17.2328L89.6492 15.3518L89.4642 15.5677C88.7858 16.3386 87.83 17.1094 86.1957 17.1094C84.3765 17.1094 82.8656 15.7835 82.5881 14.026H91.8385L91.8693 13.7793C91.9002 13.5326 91.9002 13.3476 91.9002 13.2242C91.9002 9.46241 89.2792 6.62561 85.8257 6.62561ZM82.8964 11.3742C83.3898 10.1408 84.5615 9.30823 85.9182 9.30823C87.1208 9.30823 88.2925 10.1716 88.7242 11.3742H82.8964Z" fill="#3D3D3F"/>
<path id="Vector_8" d="M103.031 7.70483C102.014 6.99563 100.842 6.62561 99.5162 6.62561C98.3753 6.62561 97.2961 6.90312 96.4019 7.42731C94.3976 8.59903 93.1642 10.8191 93.1642 13.1934C93.1642 15.5985 94.3668 17.757 96.4019 18.9287C97.2961 19.4529 98.4678 19.7612 99.5779 19.7612C100.842 19.7612 102.045 19.3912 103.031 18.7128V19.5145H105.961V6.87229H103.031V7.70483ZM102.939 15.3827C102.199 16.3386 101.058 16.9244 99.8862 16.9244C97.7895 16.9244 96.1552 15.2902 96.1552 13.2242C96.1552 11.0966 97.697 9.52408 99.7629 9.52408C100.965 9.52408 102.168 10.1099 102.939 11.0658V15.3827Z" fill="#3D3D3F"/>
<path id="Vector_9" d="M119.59 0.797852H116.568V19.5454H119.59V0.797852Z" fill="#3D3D3F"/>
<path id="Vector_10" d="M63.8406 16.7684C63.4398 16.8918 62.7614 16.9534 62.3297 16.9534C61.5897 16.9534 60.8497 16.6759 60.5105 16.2751C60.2021 15.905 60.1405 15.3192 60.1405 14.5792V9.58393H63.8406V6.87047H60.1405V0.950195H57.1187V14.3941C57.1187 16.0592 57.4887 17.2926 58.2595 18.1252C59.2154 19.2044 60.5721 19.7594 62.2372 19.7594C62.7614 19.7594 63.3473 19.6977 63.8406 19.6052V16.7684Z" fill="#3D3D3F"/>
<g id="Group_2">
<path id="Vector_11" d="M22.5834 6.74895C22.1826 6.65645 21.7509 6.62561 21.3192 6.62561C19.87 6.62561 18.7599 7.1498 18.0507 7.64316V6.87229H15.0289V19.5454H18.0507V11.0658C18.6674 10.3566 19.7158 9.52408 21.2576 9.52408C21.7201 9.52408 22.1826 9.64742 22.6143 9.83243L22.5834 6.74895Z" fill="#3D3D3F"/>
</g>
<g id="Group_3">
<path id="Vector_12" d="M115.211 6.74895C114.81 6.65645 114.379 6.62561 113.947 6.62561C112.498 6.62561 111.388 7.1498 110.678 7.64316V6.87229H107.657V19.5454H110.678V11.0658C111.295 10.3566 112.343 9.52408 113.885 9.52408C114.348 9.52408 114.81 9.64742 115.242 9.83243L115.211 6.74895Z" fill="#3D3D3F"/>
</g>
</g>
</g>
</svg>
